<?xml version="1.0" standalone="no"?>
<!DOCTYPE svg PUBLIC "-//W3C//DTD SVG 20010904//EN"
 "http://www.w3.org/TR/2001/REC-SVG-20010904/DTD/svg10.dtd">
<svg version="1.0" xmlns="http://www.w3.org/2000/svg"
 width="1670.000000pt" height="228.000000pt" viewBox="0 0 1670.000000 228.000000"
 preserveAspectRatio="xMidYMid meet">

<g transform="translate(0.000000,228.000000) scale(0.100000,-0.100000)"
fill="white" stroke="none">
<path d="M740 2189 c-128 -30 -130 -31 -136 -40 -3 -5 -12 -9 -21 -9 -9 0 -24
-7 -33 -15 -9 -8 -36 -26 -61 -39 -24 -14 -57 -33 -74 -42 -66 -37 -195 -175
-195 -208 0 -22 45 -56 73 -56 15 0 27 -4 27 -10 0 -5 11 -10 25 -10 14 0 29
-8 35 -20 9 -17 21 -20 75 -20 36 0 65 -3 65 -6 0 -3 -11 -20 -25 -38 -14 -18
-25 -36 -25 -40 0 -4 -11 -31 -24 -59 -47 -102 -64 -143 -81 -187 -19 -51 -56
-164 -75 -230 -7 -25 -21 -69 -31 -98 -11 -29 -19 -68 -19 -87 0 -19 -4 -36
-9 -39 -4 -3 -11 -25 -15 -48 -3 -24 -11 -65 -16 -93 -19 -86 -50 -333 -50
-395 0 -62 39 -120 80 -120 17 0 30 -4 30 -9 0 -5 15 -14 32 -21 18 -7 47 -18
63 -25 17 -7 49 -15 73 -19 37 -6 44 -4 50 15 6 14 30 28 81 46 40 14 90 37
111 52 70 49 149 111 172 133 13 13 48 43 78 67 30 25 88 78 128 118 39 40 76
73 82 73 5 0 32 30 60 67 28 38 64 84 80 103 70 82 90 108 90 118 0 5 18 32
40 58 22 27 40 54 40 61 0 7 16 38 35 70 19 31 42 82 51 113 9 30 25 78 35
105 10 28 21 77 25 110 3 33 8 63 10 67 3 4 0 54 -6 110 -15 145 -41 206 -118
284 -35 35 -68 64 -74 64 -5 0 -22 8 -36 18 -30 20 -246 114 -302 131 -19 6
-80 13 -135 16 -79 4 -117 1 -185 -16z m424 -143 c43 -18 69 -56 96 -140 19
-57 21 -83 18 -169 -7 -137 -62 -301 -144 -424 -18 -29 -34 -55 -34 -58 0 -10
-99 -153 -110 -160 -6 -3 -25 -30 -44 -58 -64 -99 -367 -409 -384 -393 -8 9
19 113 48 186 15 36 33 90 40 120 7 30 24 87 37 125 34 99 107 322 123 375 8
25 16 50 20 55 3 6 12 35 19 65 8 30 20 66 27 80 12 22 46 113 61 163 7 23
-14 47 -43 47 -12 0 -26 5 -29 10 -3 6 -14 10 -24 10 -10 0 -24 7 -31 15 -7 8
-21 15 -31 15 -93 0 102 94 286 138 57 14 62 14 99 -2z m256 -296 c0 -5 -4
-10 -10 -10 -5 0 -10 5 -10 10 0 6 5 10 10 10 6 0 10 -4 10 -10z m-20 -60 c0
-5 -5 -10 -11 -10 -5 0 -7 5 -4 10 3 6 8 10 11 10 2 0 4 -4 4 -10z m4 -29 c7
-10 -15 -73 -29 -83 -17 -12 -24 2 -18 35 9 47 33 72 47 48z m-9 -111 c6 -10
-13 -78 -27 -94 -4 -6 -8 -22 -8 -37 0 -15 -4 -31 -10 -34 -15 -9 -12 -42 3
-48 21 -8 34 5 42 43 4 19 13 45 21 57 8 12 14 30 14 40 0 10 3 13 9 8 11 -13
-10 -143 -25 -153 -6 -4 -11 -20 -11 -37 0 -16 -12 -48 -26 -69 -15 -21 -27
-45 -27 -52 0 -7 -8 -27 -17 -46 -29 -58 -33 -68 -33 -78 0 -5 -20 -36 -45
-69 -25 -32 -45 -63 -45 -69 0 -5 -9 -17 -20 -27 -11 -10 -20 -27 -20 -37 0
-10 -7 -21 -15 -24 -8 -4 -15 -11 -15 -16 0 -20 -42 -68 -59 -68 -10 0 -20
-12 -26 -32 -6 -19 -20 -37 -32 -43 -13 -5 -23 -13 -23 -17 0 -5 -7 -8 -15 -8
-8 0 -15 3 -15 8 0 11 49 62 60 62 6 0 10 7 10 16 0 9 14 32 30 51 17 18 30
40 30 47 0 8 7 16 15 20 18 7 20 36 3 36 -13 0 -38 -44 -38 -66 0 -13 -46 -25
-67 -17 -7 3 -13 9 -13 14 0 17 45 79 57 79 14 0 28 37 24 63 -2 12 5 21 18
24 21 5 26 14 15 26 -11 11 -35 -6 -51 -36 -8 -17 -35 -50 -59 -74 -24 -23
-44 -48 -44 -54 0 -11 -24 -39 -34 -39 -16 0 -3 32 25 62 17 18 58 75 92 125
34 51 68 93 75 93 16 0 15 -11 -4 -38 -18 -26 -16 -27 24 -6 43 21 47 32 18
46 -26 11 -31 24 -20 52 9 25 24 19 24 -9 0 -21 5 -25 31 -25 27 0 30 -2 19
-15 -14 -17 -8 -31 9 -20 18 10 13 33 -11 49 -21 15 -21 16 -3 36 22 24 12 39
-15 22 -30 -19 -33 -15 -12 16 11 15 21 36 24 47 2 12 10 19 21 17 10 -2 17 4
17 13 0 8 5 15 10 15 6 0 10 5 10 10 0 6 -7 10 -17 10 -14 0 -14 2 2 20 10 11
24 20 31 20 14 0 44 54 44 81 0 10 5 21 11 25 8 5 8 8 0 14 -7 3 -9 14 -5 23
3 9 10 15 14 12 5 -3 6 4 3 15 -3 11 -3 27 1 35 6 17 41 20 51 5z m-923 -252
c-7 -7 -12 -8 -12 -2 0 14 12 26 19 19 2 -3 -1 -11 -7 -17z m148 -62 c0 -8 -4
-18 -10 -21 -5 -3 -10 -16 -10 -29 0 -12 -4 -26 -8 -31 -11 -13 -31 -82 -34
-119 -2 -16 -9 -31 -16 -34 -10 -3 -12 5 -6 34 3 22 10 43 15 49 5 5 9 24 9
41 0 18 5 36 10 39 6 3 10 15 10 26 0 21 21 59 32 59 5 0 8 -6 8 -14z m-229
-179 c-8 -8 -11 -7 -11 4 0 20 13 34 18 19 3 -7 -1 -17 -7 -23z m-11 -57 c0
-11 -4 -20 -10 -20 -5 0 -10 9 -10 20 0 11 5 20 10 20 6 0 10 -9 10 -20z m152
-57 c-6 -10 -15 -37 -21 -60 -7 -24 -16 -43 -21 -43 -13 0 -13 37 0 45 6 3 10
13 10 21 0 17 31 67 37 60 2 -2 0 -12 -5 -23z m-52 -158 c0 -8 -4 -15 -10 -15
-5 0 -10 7 -10 15 0 8 5 15 10 15 6 0 10 -7 10 -15z m540 -47 c0 -23 -16 -23
-28 -2 -12 21 -35 8 -28 -14 4 -13 -1 -17 -19 -18 -14 -1 -25 0 -25 2 0 3 14
20 31 39 27 29 34 32 50 22 10 -6 19 -20 19 -29z"/>
<path d="M1299 1300 c-19 -20 -25 -37 -22 -55 6 -26 23 -35 23 -11 0 7 9 25
20 39 20 25 27 57 12 57 -4 0 -19 -13 -33 -30z"/>
<path d="M1246 1178 c-8 -12 -13 -25 -10 -30 3 -5 7 -8 8 -6 28 44 35 58 27
58 -6 0 -17 -10 -25 -22z"/>
<path d="M1124 964 c-13 -19 -14 -28 -5 -37 9 -9 13 -6 17 11 4 12 10 22 15
22 5 0 9 7 9 15 0 23 -18 18 -36 -11z"/>
<path d="M14527 2192 c-10 -10 -17 -23 -17 -29 0 -5 -20 -51 -45 -101 -25 -50
-45 -97 -45 -104 0 -7 -9 -28 -20 -46 -11 -18 -20 -40 -20 -50 0 -9 -10 -40
-21 -68 l-22 -51 -86 -7 c-47 -3 -129 -11 -181 -16 -234 -25 -256 -33 -207
-76 15 -13 36 -24 47 -24 10 0 40 -9 67 -21 43 -19 60 -20 161 -15 62 4 119 9
127 12 22 9 19 -37 -5 -110 -37 -111 -40 -122 -40 -153 0 -17 -8 -51 -18 -75
-10 -24 -24 -77 -31 -118 -7 -41 -15 -86 -17 -100 -20 -98 -25 -133 -29 -190
-21 -263 -25 -337 -25 -430 0 -125 5 -133 105 -165 33 -10 65 -22 70 -26 6 -4
31 -10 57 -12 35 -4 52 -1 63 9 8 9 40 68 71 132 95 201 116 241 135 258 11 9
19 23 19 29 0 7 9 24 20 38 33 41 26 53 -45 76 -35 12 -73 21 -83 21 -48 0
-67 101 -37 189 9 24 18 64 21 90 3 25 9 62 14 81 5 19 13 55 19 80 34 153 41
184 72 285 12 39 26 76 32 83 12 15 157 17 238 3 107 -19 201 -23 197 -9 -3 7
-15 19 -29 25 -53 27 -113 53 -124 53 -6 0 -29 8 -51 19 -21 10 -63 21 -92 25
-102 13 -116 27 -88 89 17 40 28 72 57 167 12 41 26 79 31 84 4 6 8 27 8 48 0
31 -4 38 -19 38 -10 0 -24 7 -31 15 -7 9 -21 13 -31 10 -11 -4 -26 0 -35 9 -8
9 -24 16 -35 16 -11 0 -27 7 -35 15 -21 20 -47 19 -67 -3z m53 -217 c0 -6 -7
-21 -34 -72 -9 -17 -16 -38 -16 -47 0 -10 -11 -28 -25 -42 -14 -14 -25 -32
-25 -40 0 -8 -5 -24 -12 -37 -6 -12 -14 -29 -18 -37 -4 -8 -16 -16 -26 -18
-18 -3 -18 -2 -2 11 11 8 15 21 12 34 -7 26 19 83 68 148 21 28 38 57 38 66 0
8 5 20 12 27 12 12 28 16 28 7z m-40 -179 c0 -8 -4 -18 -10 -21 -5 -3 -10 3
-10 14 0 12 5 21 10 21 6 0 10 -6 10 -14z m82 -28 c-6 -6 -15 -8 -19 -4 -4 4
-1 11 7 16 19 12 27 3 12 -12z m-142 -96 c0 -14 -23 -32 -41 -32 -19 0 -31
-44 -17 -58 11 -11 0 -62 -14 -62 -5 0 -7 -8 -3 -19 3 -10 -1 -24 -10 -31 -9
-7 -15 -29 -15 -51 0 -22 -4 -39 -10 -39 -5 0 -10 -9 -10 -19 0 -11 -4 -23
-10 -26 -5 -3 -10 -17 -10 -30 0 -13 -4 -27 -10 -30 -5 -3 -10 -21 -10 -39 0
-19 -9 -54 -20 -78 -11 -25 -25 -76 -31 -114 -29 -188 -38 -244 -48 -327 -9
-72 -8 -72 -23 -72 -7 0 -11 7 -9 15 2 8 5 58 7 110 4 150 13 244 29 305 8 31
15 67 15 80 0 14 4 25 8 25 4 0 9 21 10 47 1 26 6 51 12 57 5 5 10 19 10 31 0
12 4 25 8 30 5 6 15 37 22 70 7 33 17 65 23 72 5 7 6 16 3 21 -3 5 1 18 9 28
8 10 15 27 15 38 0 30 40 86 60 86 10 0 22 5 25 10 7 12 35 13 35 2z m40 -202
c0 -5 -4 -10 -10 -10 -5 0 -10 5 -10 10 0 6 5 10 10 10 6 0 10 -4 10 -10z
m-40 -100 c0 -5 -4 -10 -10 -10 -5 0 -10 5 -10 10 0 6 5 10 10 10 6 0 10 -4
10 -10z m-20 -40 c0 -5 -5 -10 -11 -10 -5 0 -7 5 -4 10 3 6 8 10 11 10 2 0 4
-4 4 -10z m0 -40 c0 -5 -4 -10 -10 -10 -5 0 -10 5 -10 10 0 6 5 10 10 10 6 0
10 -4 10 -10z"/>
<path d="M5235 2084 c-45 -5 -124 -29 -164 -50 -14 -8 -30 -14 -34 -14 -9 0
-68 -37 -192 -120 -48 -33 -112 -87 -156 -132 -26 -26 -50 -48 -54 -48 -10 0
-27 -20 -62 -70 -17 -25 -54 -67 -82 -95 -28 -27 -51 -54 -51 -61 0 -6 -13
-28 -29 -48 -16 -20 -51 -82 -79 -139 -87 -179 -118 -297 -109 -423 8 -116 16
-145 48 -186 16 -20 29 -39 29 -43 0 -14 70 -66 110 -81 25 -10 70 -31 100
-47 51 -28 63 -30 160 -31 100 0 108 1 175 34 39 19 72 38 73 42 2 4 12 8 23
8 10 0 19 5 19 10 0 6 5 10 11 10 12 0 10 -17 -11 -100 -45 -179 -33 -278 34
-285 14 -2 35 -10 48 -19 12 -9 30 -16 39 -16 10 0 19 -5 21 -11 2 -6 24 -13
49 -16 52 -6 49 -12 65 117 4 30 18 80 32 110 13 30 30 75 39 100 8 25 27 73
44 108 16 35 29 66 29 70 -1 12 124 257 133 260 4 2 7 10 7 18 0 8 8 27 19 42
10 15 26 40 35 55 16 26 22 28 54 23 76 -13 87 -12 87 9 0 13 -13 26 -37 38
-21 9 -38 22 -38 27 0 24 68 111 98 125 17 9 32 22 32 30 0 20 -27 44 -58 51
-15 4 -64 24 -108 45 l-82 39 -44 -19 c-25 -11 -77 -51 -124 -97 l-79 -79
-178 -3 c-238 -4 -364 -32 -388 -85 -14 -32 13 -77 46 -77 26 0 78 -24 95 -45
18 -22 89 -19 114 4 20 18 126 40 126 27 0 -9 -99 -106 -108 -106 -4 0 -36
-27 -72 -60 -35 -33 -66 -60 -70 -60 -3 0 -27 -17 -55 -38 -58 -43 -186 -112
-209 -112 -9 0 -18 12 -22 28 -3 15 -7 32 -9 37 -4 14 18 135 39 214 15 55 89
214 129 275 6 11 24 40 39 65 37 59 145 187 238 281 101 101 287 249 314 250
5 0 30 12 55 27 54 33 107 53 139 53 18 0 22 -5 22 -31 0 -45 35 -89 70 -89
15 0 30 -7 34 -15 3 -8 11 -15 18 -15 7 0 25 -6 39 -13 14 -8 43 -17 66 -20
40 -7 40 -7 57 36 9 23 16 52 16 64 0 55 -50 117 -120 150 -14 6 -74 35 -135
63 -100 48 -117 53 -190 55 -44 2 -98 1 -120 -1z m-385 -354 c0 -5 -5 -10 -10
-10 -17 0 -48 -33 -61 -65 l-12 -30 -7 25 c-6 21 -9 22 -14 8 -4 -9 -16 -18
-27 -21 -20 -5 -28 -47 -8 -47 5 0 8 -4 5 -9 -3 -5 -14 -7 -24 -4 -13 3 -27
-7 -47 -34 -16 -21 -37 -47 -47 -57 -10 -11 -18 -26 -18 -33 0 -7 -4 -13 -9
-13 -5 0 -13 -10 -16 -22 -10 -36 -38 -91 -61 -120 -12 -15 -25 -44 -29 -64
-3 -21 -15 -48 -25 -61 -10 -13 -16 -32 -13 -43 3 -12 -1 -28 -9 -38 -18 -20
-32 -109 -18 -117 5 -3 7 -11 5 -18 -2 -7 -9 -31 -15 -54 -12 -47 -34 -57 -46
-20 -4 12 -6 56 -6 97 1 77 36 196 67 230 8 9 15 24 15 33 0 24 22 70 42 88
10 9 18 25 19 35 0 11 8 31 17 45 19 28 76 107 92 126 5 7 10 15 10 18 0 15
138 152 171 170 29 16 79 19 79 5z m-151 -197 c-1 -17 -18 -47 -18 -34 -1 7
-7 11 -16 7 -21 -8 -19 11 3 23 21 12 32 14 31 4z m-25 -89 c6 -15 -22 -34
-41 -27 -13 5 -18 35 -7 45 9 9 42 -3 48 -18z m-46 -35 c18 -11 18 -14 -4 -68
-13 -31 -24 -64 -24 -73 0 -21 -40 -46 -40 -26 0 9 -3 9 -10 -2 -14 -22 -12
-40 5 -40 19 0 19 -11 0 -36 -8 -10 -15 -29 -15 -41 0 -12 -6 -23 -12 -26 -9
-3 -8 -9 6 -19 10 -8 17 -23 15 -33 -5 -23 -29 -32 -29 -11 0 9 -4 16 -9 16
-10 0 -20 -43 -28 -117 -7 -76 -30 -69 -24 7 1 14 -7 35 -19 47 -22 24 -27 53
-9 53 6 0 8 7 5 16 -3 9 1 32 10 52 9 21 21 48 26 62 12 30 39 88 70 153 51
106 52 107 86 86z m732 -493 c0 -3 -4 -8 -10 -11 -5 -3 -10 -1 -10 4 0 6 5 11
10 11 6 0 10 -2 10 -4z m-44 -83 c-10 -10 -19 5 -10 18 6 11 8 11 12 0 2 -7 1
-15 -2 -18z m4 -22 c0 -6 -4 -13 -10 -16 -5 -3 -10 1 -10 9 0 9 5 16 10 16 6
0 10 -4 10 -9z m-24 -63 c-6 -31 -35 -73 -44 -64 -7 8 30 96 41 96 5 0 7 -13
3 -32z m-36 -100 c0 -11 -13 -56 -33 -110 -5 -16 -13 -28 -18 -28 -15 0 -10
54 7 78 8 12 12 27 9 32 -7 12 12 40 26 40 5 0 9 -5 9 -12z m-60 -193 c0 -14
-4 -25 -10 -25 -11 0 -14 33 -3 43 11 11 13 8 13 -18z"/>
<path d="M4486 1081 c-4 -7 -5 -15 -2 -18 9 -9 19 4 14 18 -4 11 -6 11 -12 0z"/>
<path d="M8693 2048 c-6 -7 -13 -24 -16 -38 -3 -14 -16 -65 -28 -115 -11 -49
-30 -128 -41 -175 -11 -47 -24 -103 -29 -125 -6 -22 -15 -71 -20 -110 -5 -38
-15 -87 -20 -110 -6 -22 -15 -74 -19 -115 -5 -41 -14 -104 -20 -140 -6 -36
-15 -94 -20 -130 -14 -99 -29 -198 -40 -270 -6 -36 -15 -92 -20 -125 -6 -33
-15 -82 -20 -110 -26 -125 -25 -132 8 -149 16 -8 32 -12 36 -9 3 3 14 -1 23
-9 28 -24 147 -45 158 -28 3 5 14 10 24 10 13 0 27 19 46 58 78 164 114 235
157 310 27 46 48 89 48 97 0 7 7 15 14 18 8 3 23 23 33 44 23 48 75 122 87
123 11 0 4 -27 -34 -135 -48 -133 -60 -205 -60 -348 0 -114 2 -132 21 -158 15
-22 28 -29 53 -29 18 0 36 -3 40 -7 13 -13 75 -30 108 -29 24 1 32 5 28 16 -8
26 -2 202 10 274 7 39 23 105 36 146 13 41 29 91 35 110 14 47 67 176 90 221
11 20 19 45 19 55 0 11 9 33 20 49 11 17 20 40 20 51 0 12 7 35 15 50 8 16 15
48 15 72 0 53 -33 92 -79 92 -17 0 -40 4 -53 9 -125 50 -136 53 -158 41 -61
-33 -161 -119 -213 -183 -21 -25 -44 -52 -50 -59 -7 -7 -28 -34 -45 -60 -18
-27 -39 -48 -47 -48 -14 0 -13 25 5 145 5 33 14 94 20 135 7 41 16 93 20 115
5 22 14 67 20 100 6 33 16 76 21 95 5 19 17 67 25 105 9 39 20 88 25 110 22
88 22 94 3 101 -11 3 -28 10 -39 14 -21 9 -59 18 -112 27 -18 3 -38 11 -44 19
-14 17 -43 18 -56 2z m131 -368 c-6 -15 -30 -150 -41 -225 -3 -22 -9 -45 -14
-51 -5 -6 -8 -24 -8 -40 1 -16 -7 -56 -16 -89 -10 -33 -19 -80 -22 -105 -2
-25 -8 -54 -13 -65 -15 -35 -30 -176 -32 -322 -2 -103 -6 -143 -15 -143 -22 0
-29 64 -21 220 8 178 14 244 28 303 5 23 10 59 10 79 0 20 5 40 10 43 6 3 10
20 10 37 0 30 6 58 35 163 8 28 17 74 21 103 4 29 11 55 15 58 5 3 9 18 9 33
0 38 21 57 38 34 7 -10 10 -24 6 -33z m-120 -41 c-1 -30 4 -57 10 -62 7 -5 5
-11 -7 -18 -14 -8 -17 -18 -12 -36 3 -14 1 -49 -5 -78 -6 -29 -15 -84 -20
-122 -5 -37 -15 -99 -23 -138 -8 -38 -18 -86 -21 -105 -4 -19 -12 -51 -18 -71
-7 -26 -7 -42 1 -57 7 -14 8 -23 1 -27 -5 -3 -10 -24 -10 -46 0 -22 -5 -49
-11 -60 -10 -20 -12 -20 -30 -3 -12 11 -16 21 -10 28 5 6 9 34 8 61 -1 57 16
172 46 325 11 58 20 120 19 139 -1 18 2 39 8 46 5 6 13 36 16 66 3 30 11 60
17 68 11 13 13 25 16 114 1 26 5 37 14 34 8 -2 12 -23 11 -58z m515 -509 c-6
-16 -24 -53 -39 -82 -61 -112 -77 -150 -84 -198 -3 -19 -14 -69 -26 -110 -33
-113 -40 -156 -44 -258 -3 -88 -9 -113 -22 -100 -6 7 -6 187 1 243 10 89 18
125 26 131 5 3 9 20 9 37 0 48 19 105 38 116 9 5 16 13 15 18 -4 16 10 58 28
85 11 14 19 29 19 34 0 4 11 21 24 38 13 17 26 41 30 54 4 12 14 22 21 22 11
0 12 -6 4 -30z m76 -37 c-28 -50 -32 -58 -43 -80 -7 -13 -12 -31 -12 -41 0
-10 -5 -23 -11 -29 -6 -6 -10 -30 -7 -52 2 -27 -1 -42 -9 -45 -7 -3 -13 -19
-13 -35 0 -16 -5 -33 -11 -37 -6 -3 -8 -17 -5 -29 3 -13 -1 -50 -9 -81 -8 -32
-15 -82 -15 -112 0 -29 -4 -51 -8 -48 -12 7 -13 148 -1 162 5 6 8 28 8 50 -1
42 5 86 20 149 6 22 13 54 17 70 4 17 15 42 25 57 11 14 19 35 19 45 0 28 64
122 68 101 2 -9 -4 -29 -13 -45z"/>
<path d="M7123 1954 c-74 -73 -139 -191 -160 -294 -3 -14 -9 -29 -13 -35 -3
-5 -12 -30 -19 -55 -7 -25 -17 -56 -21 -70 -7 -24 -16 -56 -41 -152 -6 -24
-15 -53 -20 -66 -5 -13 -9 -38 -9 -57 0 -45 -31 -78 -65 -69 -30 7 -205 -16
-205 -27 0 -14 39 -49 55 -49 8 0 34 -11 59 -25 25 -14 53 -25 63 -25 41 -1
46 -13 35 -86 -7 -38 -16 -89 -22 -114 -6 -25 -14 -83 -20 -130 -5 -47 -14
-116 -21 -155 -6 -38 -14 -97 -18 -130 -5 -33 -11 -67 -15 -76 -11 -25 31 -70
58 -63 16 4 25 0 29 -10 4 -9 15 -16 25 -16 10 0 22 -3 26 -7 4 -5 27 -8 52
-8 49 -1 51 2 64 80 23 130 40 227 55 300 20 95 31 159 45 240 27 164 36 179
105 171 92 -12 251 -16 264 -7 22 14 5 28 -57 47 -31 9 -68 25 -82 35 -14 9
-48 20 -75 24 -88 12 -87 11 -79 63 3 26 10 51 15 56 5 6 9 20 9 33 0 12 4 32
9 45 5 13 19 57 32 98 28 90 23 83 46 72 28 -14 116 -53 138 -62 11 -5 37 -11
58 -14 l37 -5 0 72 c0 79 16 177 50 305 12 46 20 89 17 96 -3 6 -23 18 -46 26
-23 7 -46 19 -52 27 -6 7 -24 13 -39 13 -15 0 -33 7 -40 15 -9 10 -28 15 -59
14 -25 -1 -65 2 -87 6 -39 7 -44 5 -81 -31z m37 -224 c0 -5 -5 -10 -11 -10 -5
0 -7 5 -4 10 3 6 8 10 11 10 2 0 4 -4 4 -10z m-73 -24 c-3 -8 -11 -34 -17 -58
-7 -24 -17 -50 -24 -58 -7 -8 -20 -44 -30 -80 -10 -36 -25 -90 -33 -120 -8
-30 -28 -95 -44 -145 -17 -49 -33 -102 -36 -117 -3 -16 -9 -28 -13 -28 -4 0
-10 -30 -13 -67 -9 -99 -22 -169 -34 -185 -6 -7 -14 -57 -18 -110 -5 -69 -11
-98 -22 -102 -7 -3 -16 1 -20 10 -13 35 24 275 58 369 9 28 23 80 30 118 7 37
16 67 19 67 4 0 12 26 19 58 7 31 16 66 21 77 4 11 16 47 26 80 20 66 19 63
33 120 6 22 15 41 20 43 6 2 11 12 11 22 0 10 5 22 10 25 6 3 10 15 10 26 0
23 28 69 42 69 6 0 8 -6 5 -14z m23 -116 c0 -5 -7 -10 -15 -10 -8 0 -15 5 -15
10 0 6 7 10 15 10 8 0 15 -4 15 -10z m50 -30 c0 -5 -5 -10 -11 -10 -5 0 -7 5
-4 10 3 6 8 10 11 10 2 0 4 -4 4 -10z m-70 -9 c0 -12 -20 -25 -27 -18 -7 7 6
27 18 27 5 0 9 -4 9 -9z m-10 -61 c0 -6 -4 -18 -9 -28 -17 -33 -30 -67 -36
-97 -25 -117 -34 -145 -47 -145 -5 0 -7 -9 -3 -20 3 -10 -1 -33 -9 -49 -9 -17
-16 -39 -16 -51 0 -11 -4 -20 -10 -20 -5 0 -10 -22 -10 -48 0 -26 -4 -52 -9
-58 -9 -9 -18 -57 -27 -154 -6 -54 -17 -80 -35 -80 -12 0 -11 37 1 45 6 3 10
28 10 54 0 26 9 81 20 122 11 41 25 99 31 129 6 30 15 63 20 72 5 10 9 26 9
37 0 10 8 36 19 58 24 50 41 104 41 132 0 28 37 111 50 111 6 0 10 -5 10 -10z
m40 -74 c0 -8 -4 -18 -10 -21 -5 -3 -10 -15 -10 -26 0 -10 -4 -19 -10 -19 -13
0 -13 21 0 54 10 28 30 35 30 12z m-40 -126 c0 -16 -4 -30 -10 -30 -5 0 -10
-18 -10 -41 0 -28 -4 -39 -12 -36 -14 5 -12 56 3 72 5 5 9 22 9 37 0 15 5 28
10 28 6 0 10 -13 10 -30z m-44 -147 c-10 -10 -19 5 -10 18 6 11 8 11 12 0 2
-7 1 -15 -2 -18z m-16 -67 c0 -14 -4 -28 -10 -31 -5 -3 -10 -15 -10 -26 0 -10
-4 -19 -10 -19 -13 0 -13 12 2 60 14 45 28 52 28 16z m-40 -151 c0 -8 -4 -15
-10 -15 -5 0 -10 7 -10 15 0 8 5 15 10 15 6 0 10 -7 10 -15z m-15 -75 c1 -11
-4 -20 -12 -20 -13 0 -18 31 -6 43 9 10 16 0 18 -23z m-165 -300 c0 -5 -5 -10
-11 -10 -5 0 -7 5 -4 10 3 6 8 10 11 10 2 0 4 -4 4 -10z"/>
<path d="M11120 1604 c-101 -39 -182 -105 -263 -214 -22 -30 -42 -47 -62 -50
-78 -14 -234 -301 -276 -510 -39 -194 -2 -366 99 -455 46 -41 105 -75 129 -75
8 0 30 -8 51 -19 20 -10 67 -24 103 -30 55 -9 74 -8 109 4 52 18 103 49 136
82 27 26 134 170 134 179 0 3 13 24 28 47 57 84 118 241 180 462 23 81 54 300
48 338 -15 91 -83 177 -139 177 -10 0 -37 10 -60 22 -23 12 -51 26 -61 31 -23
11 -134 19 -156 11z m187 -256 c-5 -87 -19 -167 -38 -213 -4 -11 -10 -33 -12
-50 -5 -31 -37 -124 -64 -185 -9 -19 -31 -67 -50 -107 -37 -81 -40 -95 -18
-87 22 9 18 -12 -11 -56 -26 -39 -49 -54 -38 -25 4 8 3 15 0 15 -9 0 -55 -53
-56 -62 -1 -32 -150 -161 -178 -156 -21 4 -45 94 -38 142 12 91 24 154 40 206
10 30 22 72 27 93 23 96 32 115 70 147 21 18 39 36 39 41 0 11 70 132 84 144
6 6 24 30 41 54 16 24 35 45 42 48 7 3 13 10 13 16 0 19 113 127 134 127 18 0
19 -6 13 -92z m73 -58 c0 -5 -4 -10 -10 -10 -5 0 -10 5 -10 10 0 6 5 10 10 10
6 0 10 -4 10 -10z m-16 -88 c-4 -9 -9 -35 -10 -57 -4 -69 -16 -119 -31 -137
-9 -10 -12 -25 -8 -38 5 -15 0 -29 -15 -45 -16 -17 -21 -33 -18 -61 l3 -39 18
34 c9 19 17 40 17 48 0 7 7 16 15 19 10 4 13 14 9 30 -4 15 -2 24 5 24 6 0 11
9 11 19 0 11 4 22 9 26 6 3 9 13 9 23 0 9 3 31 7 47 4 17 9 42 12 58 4 22 11
27 33 27 30 0 47 -24 31 -44 -5 -6 -9 -22 -9 -36 -1 -41 -14 -124 -22 -135 -9
-12 -50 -130 -50 -144 0 -24 -100 -218 -124 -240 -14 -13 -36 -45 -47 -70 -25
-52 -65 -90 -94 -90 -19 0 -19 1 3 16 12 8 22 22 22 30 0 21 -31 63 -46 63
-16 0 -19 16 -4 25 6 3 10 15 10 26 0 10 3 19 8 19 4 0 18 17 32 38 14 20 30
40 37 45 7 4 10 14 7 22 -4 8 -1 15 5 15 6 0 11 5 11 10 0 6 -12 10 -26 10
l-26 0 26 34 c14 19 26 40 26 46 0 9 62 148 91 202 5 10 9 26 9 36 0 10 5 23
11 29 6 6 12 32 13 56 0 25 4 49 9 53 4 4 7 15 7 24 0 9 6 22 13 29 10 10 13
8 15 -9 2 -12 0 -29 -4 -38z"/>
<path d="M11220 820 c0 -5 5 -10 10 -10 6 0 10 5 10 10 0 6 -4 10 -10 10 -5 0
-10 -4 -10 -10z"/>
<path d="M11260 809 c0 -5 5 -7 10 -4 6 3 10 8 10 11 0 2 -4 4 -10 4 -5 0 -10
-5 -10 -11z"/>
<path d="M11233 768 c-17 -22 -22 -58 -9 -58 12 0 36 40 36 60 0 14 -16 12
-27 -2z"/>
<path d="M11235 651 c-8 -17 -12 -31 -7 -31 12 0 37 48 29 56 -3 3 -13 -8 -22
-25z"/>
<path d="M11180 570 c0 -5 5 -10 10 -10 6 0 10 5 10 10 0 6 -4 10 -10 10 -5 0
-10 -4 -10 -10z"/>
<path d="M11100 550 c0 -5 7 -10 15 -10 8 0 15 5 15 10 0 6 -7 10 -15 10 -8 0
-15 -4 -15 -10z"/>
<path d="M11909 1518 c-21 -18 -69 -95 -69 -111 0 -8 -9 -26 -20 -40 -11 -14
-20 -28 -20 -31 0 -3 -11 -30 -25 -59 -13 -30 -32 -76 -41 -103 -9 -27 -25
-67 -35 -88 -11 -22 -19 -48 -19 -57 0 -10 -4 -21 -10 -24 -5 -3 -10 -21 -10
-40 0 -19 -4 -36 -9 -39 -10 -6 -47 -125 -55 -176 -20 -120 -25 -191 -20 -238
8 -68 14 -72 181 -133 77 -28 87 -20 161 131 34 70 62 131 62 136 0 5 9 20 20
34 11 14 20 33 20 42 0 9 3 18 8 20 4 2 23 32 41 68 45 85 120 200 130 200 5
0 5 -17 0 -37 -4 -21 -15 -72 -23 -113 -9 -41 -21 -97 -28 -125 -19 -78 -19
-235 0 -265 20 -33 42 -49 67 -50 11 0 34 -8 50 -18 67 -41 153 -34 203 16 39
39 82 97 127 171 11 18 35 51 53 73 17 22 32 45 32 52 0 7 13 30 30 52 16 21
30 42 30 46 0 10 62 102 74 110 22 15 16 -13 -17 -89 -81 -183 -141 -413 -108
-413 5 0 11 -9 14 -20 3 -14 14 -20 31 -20 15 0 49 -11 76 -25 92 -47 168 -25
139 39 -7 14 -9 31 -7 38 3 7 5 15 4 18 0 3 7 16 17 30 9 13 17 34 17 47 0 12
5 25 10 28 6 3 10 15 10 26 0 27 23 99 32 99 5 0 8 14 8 30 0 17 4 30 8 30 5
0 18 30 31 68 12 37 31 85 41 107 21 45 71 193 90 270 7 28 17 54 21 59 12 13
11 59 0 89 -6 15 -30 34 -63 50 -74 36 -156 67 -176 67 -55 0 -151 -85 -279
-245 -35 -44 -71 -88 -79 -98 -8 -9 -14 -21 -14 -26 0 -5 -11 -22 -24 -38 -13
-15 -31 -43 -41 -62 -9 -19 -26 -43 -36 -54 -10 -12 -19 -27 -19 -34 0 -7 -4
-13 -10 -13 -5 0 -10 -6 -10 -12 0 -18 -47 -74 -55 -66 -4 3 -2 15 4 26 6 12
11 32 11 46 0 14 7 51 16 83 16 55 23 91 44 213 19 108 22 148 11 169 -7 12
-16 21 -21 21 -5 0 -48 18 -95 40 -47 22 -97 40 -111 40 -17 0 -45 -18 -82
-52 -31 -29 -60 -57 -64 -63 -4 -5 -10 -7 -13 -3 -4 3 5 29 19 57 29 57 30 61
15 61 -7 0 -30 9 -53 20 -23 10 -60 24 -82 30 -23 5 -47 17 -54 25 -15 18 -41
19 -61 3z m121 -267 c0 -5 -7 -14 -15 -21 -8 -7 -15 -21 -15 -31 0 -11 -4 -19
-10 -19 -14 0 -13 20 3 53 11 25 37 38 37 18z m234 -15 c-6 -15 -34 -23 -34
-10 0 8 34 34 38 30 1 -2 0 -11 -4 -20z m-67 -50 c-7 -17 -47 -41 -47 -28 0
12 41 54 47 48 3 -3 3 -12 0 -20z m-220 -68 c-3 -18 -11 -53 -17 -78 -6 -25
-13 -62 -15 -84 -1 -21 -8 -43 -14 -49 -6 -6 -11 -22 -11 -35 0 -21 2 -22 15
-12 8 7 20 30 25 52 6 21 18 42 26 45 7 3 14 12 14 19 0 8 7 17 15 20 8 4 15
16 15 28 0 29 12 45 45 62 33 17 50 6 41 -24 -4 -11 -29 -44 -57 -73 -27 -30
-64 -83 -82 -119 -17 -36 -35 -67 -39 -70 -4 -3 -7 -14 -6 -25 1 -43 -57 -175
-77 -175 -8 0 -17 -15 -21 -35 -3 -19 -12 -39 -20 -46 -8 -6 -14 -17 -14 -24
0 -7 -7 -18 -15 -25 -12 -10 -16 -8 -24 13 -14 37 4 151 50 303 5 17 9 40 9
52 0 11 5 24 11 27 7 5 8 25 4 56 -5 32 -3 49 4 49 6 0 26 33 45 74 24 50 41
75 56 79 12 3 19 10 15 16 -3 6 1 11 11 11 13 0 15 -7 11 -32z m-162 3 c3 -5
1 -12 -5 -16 -5 -3 -10 1 -10 9 0 18 6 21 15 7z m-15 -51 c0 -5 -5 -10 -11
-10 -5 0 -7 5 -4 10 3 6 8 10 11 10 2 0 4 -4 4 -10z m-28 -112 c-13 -13 -24 5
-16 27 7 16 8 16 17 0 6 -11 6 -20 -1 -27z m-12 -48 c0 -5 -4 -10 -10 -10 -5
0 -10 5 -10 10 0 6 5 10 10 10 6 0 10 -4 10 -10z m56 -37 c-11 -11 -19 6 -11
24 8 17 8 17 12 0 3 -10 2 -21 -1 -24z m-76 -58 c0 -8 -4 -15 -10 -15 -5 0
-10 7 -10 15 0 8 5 15 10 15 6 0 10 -7 10 -15z m-16 -115 c6 -38 -5 -67 -23
-56 -6 4 -8 12 -5 18 4 6 6 29 6 52 -2 47 13 38 22 -14z"/>
<path d="M11920 1075 c0 -8 5 -15 10 -15 6 0 10 7 10 15 0 8 -4 15 -10 15 -5
0 -10 -7 -10 -15z"/>
<path d="M11920 1030 c0 -5 5 -10 10 -10 6 0 10 5 10 10 0 6 -4 10 -10 10 -5
0 -10 -4 -10 -10z"/>
<path d="M11887 943 c-10 -10 -8 -43 2 -43 9 0 21 24 21 41 0 11 -14 12 -23 2z"/>
<path d="M11860 840 c0 -11 5 -20 10 -20 6 0 10 9 10 20 0 11 -4 20 -10 20 -5
0 -10 -9 -10 -20z"/>
<path d="M2984 1509 c-151 -57 -168 -66 -271 -142 -62 -46 -165 -169 -181
-216 -27 -77 -3 -133 66 -159 197 -75 194 -74 305 -77 92 -2 110 -5 122 -21
32 -44 28 -162 -8 -244 -10 -25 -26 -60 -34 -78 -32 -73 -175 -224 -268 -283
-47 -30 -70 -36 -80 -20 -8 14 12 94 27 106 7 5 24 23 36 40 32 40 189 172
234 196 20 10 39 23 43 28 7 12 -32 32 -110 56 -33 10 -64 24 -70 30 -5 7 -18
15 -27 18 -20 7 -157 -59 -176 -85 -7 -10 -20 -18 -27 -18 -23 0 -151 -131
-176 -179 -34 -66 -41 -126 -21 -188 15 -44 24 -56 67 -82 28 -17 56 -31 61
-31 6 0 35 -12 65 -26 91 -45 210 -67 232 -45 6 6 27 11 46 11 20 0 56 12 81
25 25 14 53 28 63 31 9 4 17 10 17 15 0 5 6 9 13 9 16 0 95 76 161 154 48 57
49 60 37 93 -15 40 -1 67 21 45 21 -21 28 -14 57 51 48 105 55 189 24 272 -18
47 -105 132 -145 140 -15 4 -30 11 -33 16 -4 5 -14 9 -24 9 -10 0 -45 13 -78
29 -33 17 -88 35 -122 42 -39 8 -61 18 -59 25 6 24 113 143 141 156 15 7 27
16 27 19 0 3 19 20 43 37 38 26 49 30 88 25 24 -3 51 -12 60 -19 8 -7 25 -15
37 -17 12 -2 25 -6 28 -10 4 -4 20 -7 35 -7 15 0 31 -4 34 -10 11 -18 24 -10
41 25 21 46 22 100 1 123 -10 10 -36 25 -60 32 -23 8 -71 27 -107 43 -36 16
-84 37 -106 47 -42 18 -96 22 -130 9z m-104 -279 c0 -5 -9 -15 -20 -22 -11 -7
-20 -18 -20 -24 0 -6 -9 -19 -20 -29 -11 -10 -20 -23 -20 -28 0 -16 -41 -57
-57 -57 -25 0 -13 25 37 77 28 29 50 56 50 61 0 12 22 32 37 32 7 0 13 -4 13
-10z"/>
<path d="M9632 1488 c-7 -7 -12 -17 -12 -23 0 -7 -7 -25 -15 -42 -31 -62 -87
-322 -106 -488 -4 -44 -13 -102 -19 -130 -6 -27 -13 -81 -16 -120 -2 -38 -7
-83 -10 -100 -12 -62 -25 -181 -24 -220 1 -41 31 -85 57 -85 7 0 21 -4 31 -9
28 -15 94 -31 137 -33 37 -3 41 0 59 35 10 21 21 68 24 103 2 36 9 67 13 70 5
3 9 15 9 27 0 12 14 49 30 82 16 33 30 65 30 71 0 6 7 17 15 24 8 7 26 36 40
65 14 29 35 62 46 74 11 12 26 36 34 54 7 17 23 43 35 57 12 14 25 31 30 39
11 20 32 3 25 -19 -3 -11 -6 -56 -7 -101 0 -75 2 -84 23 -100 13 -10 35 -19
48 -19 13 0 29 -7 35 -15 6 -8 22 -17 35 -20 12 -2 28 -9 35 -14 6 -5 31 -9
56 -8 l45 2 6 65 c4 36 12 85 19 110 7 25 17 62 21 83 5 20 14 56 20 80 21 84
58 303 58 349 1 43 -9 50 -119 88 -36 12 -80 28 -97 36 -34 15 -103 10 -103
-7 0 -5 -18 -21 -40 -35 -22 -15 -40 -32 -40 -38 0 -6 -31 -42 -68 -81 -37
-38 -74 -81 -83 -95 -9 -14 -20 -22 -23 -19 -4 4 0 53 7 110 15 109 12 129
-24 129 -10 0 -21 5 -24 11 -4 6 -12 8 -19 6 -6 -3 -20 1 -31 9 -10 8 -27 14
-37 14 -9 0 -32 9 -50 20 -39 23 -40 24 -56 8z m183 -295 c-4 -32 -10 -101
-15 -153 -9 -111 -35 -239 -51 -254 -8 -8 -10 0 -5 29 3 22 9 65 12 95 4 30
10 60 15 65 4 6 9 47 10 91 2 91 18 184 32 184 6 0 7 -23 2 -57z m-152 -1 c16
-80 -9 -339 -47 -475 -9 -32 -16 -66 -16 -75 0 -21 -22 -72 -31 -72 -10 0 -8
94 3 107 5 7 7 16 4 21 -3 6 1 29 9 51 9 26 12 58 9 85 -5 33 -3 44 9 49 13 5
15 22 13 94 -1 48 2 99 7 113 7 22 13 60 16 113 2 27 18 20 24 -11z m637 -44
c-1 -39 -11 -90 -38 -188 -6 -19 -13 -52 -17 -72 -3 -21 -10 -38 -15 -38 -16
0 -11 118 6 158 15 36 22 66 28 128 6 65 36 75 36 12z m60 -46 c0 -21 -4 -42
-9 -47 -5 -6 -13 -30 -18 -54 -4 -25 -15 -47 -22 -49 -15 -5 -14 4 9 83 6 22
13 51 15 65 4 39 4 40 15 40 6 0 10 -17 10 -38z m-610 -339 c-1 -18 -18 -35
-24 -24 -4 6 -4 16 -1 21 7 12 25 13 25 3z"/>
<path d="M15752 1488 c-7 -7 -12 -17 -12 -23 0 -7 -7 -25 -15 -42 -31 -62 -87
-322 -106 -488 -4 -44 -13 -102 -19 -130 -6 -27 -13 -81 -16 -120 -2 -38 -7
-83 -10 -100 -12 -62 -25 -181 -24 -220 1 -41 31 -85 57 -85 7 0 21 -4 31 -9
28 -15 94 -31 137 -33 37 -3 41 0 59 35 10 21 21 68 24 103 2 36 9 67 13 70 5
3 9 15 9 27 0 12 14 49 30 82 16 33 30 65 30 71 0 6 7 17 15 24 8 7 26 36 40
65 14 29 35 62 46 74 11 12 26 36 34 54 7 17 23 43 35 57 12 14 25 31 30 39
11 20 32 3 25 -19 -3 -11 -6 -56 -7 -101 0 -75 2 -84 23 -100 13 -10 35 -19
48 -19 13 0 29 -7 35 -15 6 -8 22 -17 35 -20 12 -2 28 -9 35 -14 6 -5 31 -9
56 -8 l45 2 6 65 c4 36 12 85 19 110 7 25 17 62 21 83 5 20 14 56 20 80 21 84
58 303 58 349 1 43 -9 50 -119 88 -36 12 -80 28 -97 36 -34 15 -103 10 -103
-7 0 -5 -18 -21 -40 -35 -22 -15 -40 -31 -40 -37 0 -6 -28 -40 -63 -76 -34
-36 -72 -79 -84 -96 -12 -16 -24 -27 -28 -24 -3 4 1 53 8 110 15 109 12 129
-24 129 -10 0 -21 5 -24 11 -4 6 -12 8 -19 6 -6 -3 -20 1 -31 9 -10 8 -27 14
-37 14 -9 0 -32 9 -50 20 -39 23 -40 24 -56 8z m183 -295 c-4 -32 -10 -101
-15 -153 -7 -91 -34 -237 -45 -248 -14 -14 -18 13 -7 53 7 25 12 62 12 83 0
21 4 42 9 47 6 6 11 46 12 91 2 91 18 184 32 184 6 0 7 -23 2 -57z m-152 -1
c16 -80 -9 -339 -47 -475 -9 -32 -16 -66 -16 -75 0 -21 -22 -72 -31 -72 -10 0
-8 94 3 107 5 7 7 16 4 21 -3 6 1 29 9 51 9 26 12 58 9 85 -5 33 -3 44 9 49
13 5 15 22 13 94 -1 48 2 99 7 113 7 22 13 60 16 113 2 27 18 20 24 -11z m637
-44 c-1 -39 -11 -90 -38 -188 -6 -19 -13 -52 -17 -72 -3 -21 -10 -38 -15 -38
-16 0 -11 118 6 158 15 36 22 66 28 128 6 65 36 75 36 12z m60 -46 c0 -21 -4
-42 -9 -47 -5 -6 -13 -30 -18 -54 -4 -25 -15 -47 -22 -49 -15 -5 -14 4 9 83 6
22 13 51 15 65 4 39 4 40 15 40 6 0 10 -17 10 -38z m-615 -352 c-5 -16 -10
-19 -18 -11 -7 7 -6 15 3 26 17 20 24 13 15 -15z"/>
<path d="M6034 1411 c-42 -38 -144 -159 -144 -171 0 -5 -11 -19 -24 -32 -25
-24 -106 -174 -106 -196 0 -7 -7 -27 -17 -45 -9 -18 -20 -61 -25 -97 -19 -146
-20 -184 -3 -245 10 -33 19 -72 22 -87 3 -14 14 -36 24 -47 10 -11 19 -24 19
-29 0 -23 94 -70 210 -104 51 -15 134 -3 185 26 36 22 104 83 173 157 7 8 31
33 54 56 49 51 81 100 73 114 -4 5 -21 9 -39 9 -19 0 -39 6 -45 14 -7 8 -23
17 -37 20 -14 4 -35 16 -47 27 l-22 20 48 44 c26 24 47 47 47 51 0 5 11 20 25
34 55 57 93 232 66 302 -5 13 -15 42 -21 65 -15 49 -48 81 -93 90 -18 4 -52
16 -77 28 -34 17 -65 22 -130 23 -80 2 -87 0 -116 -27z m206 -266 c0 -13 -5
-37 -12 -52 -17 -39 -82 -134 -106 -156 -23 -21 -50 -14 -32 8 6 7 21 32 33
56 32 62 101 169 110 169 4 0 7 -11 7 -25z m-260 -90 c0 -8 5 -15 10 -15 6 0
10 -13 10 -30 0 -31 -13 -39 -27 -17 -10 16 -10 77 0 77 4 0 7 -7 7 -15z
m-140 -30 c0 -8 -4 -15 -10 -15 -5 0 -10 7 -10 15 0 8 5 15 10 15 6 0 10 -7
10 -15z m120 -60 c0 -14 -4 -25 -10 -25 -11 0 -14 33 -3 43 11 11 13 8 13 -18z
m-120 -34 c0 -4 -3 -11 -7 -14 -8 -9 -34 13 -28 24 6 9 35 1 35 -10z m139 -22
c-7 -4 -14 -29 -16 -55 -1 -28 -9 -54 -19 -63 -15 -15 -16 -14 -10 6 4 12 2
24 -4 28 -7 4 -7 12 0 25 5 10 10 29 10 43 0 30 6 36 31 30 15 -4 17 -8 8 -14z
m-159 -33 c0 -31 -12 -47 -26 -35 -10 8 -11 16 -3 30 11 22 29 25 29 5z m420
-125 c0 -5 -13 -21 -30 -34 -16 -14 -30 -30 -30 -35 0 -11 -103 -109 -146
-140 -45 -31 -59 -12 -48 65 8 53 11 58 35 59 30 0 150 56 169 79 13 16 50 21
50 6z"/>
<path d="M13569 1407 c-43 -39 -139 -155 -139 -168 0 -5 1 -12 3 -15 1 -4 -8
-10 -20 -15 -21 -7 -113 -168 -113 -197 0 -7 -7 -27 -17 -45 -9 -18 -20 -61
-25 -97 -19 -146 -20 -184 -3 -245 10 -33 19 -72 22 -87 3 -14 14 -36 24 -47
10 -11 19 -24 19 -29 0 -23 94 -70 210 -104 51 -15 134 -3 185 26 37 22 124
102 172 157 7 8 18 19 25 25 22 19 72 77 91 107 22 35 15 47 -27 47 -19 0 -39
6 -45 14 -7 8 -23 17 -37 20 -14 4 -35 16 -47 27 l-22 20 48 44 c26 24 47 47
47 51 0 5 11 20 25 34 55 57 93 232 66 302 -5 13 -15 42 -21 65 -15 49 -48 81
-93 90 -18 4 -52 16 -77 28 -34 17 -65 22 -130 23 -82 1 -86 0 -121 -31z m211
-262 c0 -13 -5 -37 -12 -52 -17 -39 -82 -134 -106 -156 -23 -21 -50 -14 -32 8
6 7 21 32 33 56 32 62 101 169 110 169 4 0 7 -11 7 -25z m-260 -90 c0 -8 5
-15 10 -15 6 0 10 -13 10 -30 0 -31 -13 -39 -27 -17 -10 17 -12 77 -1 77 4 0
8 -7 8 -15z m-140 -30 c0 -8 -4 -15 -10 -15 -5 0 -10 7 -10 15 0 8 5 15 10 15
6 0 10 -7 10 -15z m118 -66 c-4 -25 -1 -33 14 -37 15 -3 16 -7 7 -13 -7 -4
-14 -29 -16 -55 -1 -28 -9 -54 -19 -63 -15 -15 -16 -14 -10 6 4 12 2 24 -4 28
-7 4 -7 12 1 26 5 11 10 43 11 72 0 51 4 67 15 67 3 0 3 -14 1 -31z m-118 -28
c0 -4 -3 -11 -7 -14 -8 -9 -34 13 -28 24 6 9 35 1 35 -10z m-20 -55 c0 -31
-12 -47 -26 -35 -10 8 -11 16 -3 30 11 22 29 25 29 5z m420 -125 c0 -5 -13
-21 -30 -34 -16 -14 -30 -30 -30 -35 0 -11 -103 -109 -146 -140 -45 -31 -59
-12 -48 65 8 53 11 58 35 59 30 0 150 56 169 79 13 16 50 21 50 6z"/>
<path d="M15069 1407 c-43 -39 -139 -154 -139 -167 0 -5 -11 -19 -24 -32 -25
-24 -106 -174 -106 -196 0 -7 -7 -27 -17 -45 -9 -18 -20 -61 -25 -97 -19 -146
-20 -184 -3 -245 10 -33 19 -72 22 -87 3 -14 14 -36 24 -47 10 -11 19 -24 19
-29 0 -23 94 -70 210 -104 51 -15 134 -3 185 26 36 22 104 83 173 157 7 8 31
33 54 56 49 51 81 100 73 114 -4 5 -21 9 -39 9 -19 0 -39 6 -45 14 -7 8 -23
17 -37 20 -14 4 -35 16 -47 27 l-22 20 48 44 c26 24 47 47 47 51 0 5 11 20 25
34 55 57 93 232 66 302 -5 13 -15 42 -21 65 -15 49 -48 81 -93 90 -18 4 -52
16 -77 28 -34 17 -65 22 -130 23 -82 1 -86 0 -121 -31z m211 -262 c0 -13 -5
-37 -12 -52 -17 -39 -82 -134 -106 -156 -23 -21 -50 -14 -32 8 6 7 21 32 33
56 32 62 101 169 110 169 4 0 7 -11 7 -25z m-260 -90 c0 -8 5 -15 10 -15 6 0
10 -13 10 -30 0 -31 -13 -39 -27 -17 -10 16 -10 77 0 77 4 0 7 -7 7 -15z
m-140 -30 c0 -8 -4 -15 -10 -15 -5 0 -10 7 -10 15 0 8 5 15 10 15 6 0 10 -7
10 -15z m118 -66 c-4 -25 -1 -33 14 -37 15 -3 16 -7 7 -13 -7 -4 -14 -29 -16
-55 -1 -28 -9 -54 -19 -63 -15 -15 -16 -14 -10 6 4 12 2 24 -4 28 -7 4 -7 12
1 26 5 11 10 43 11 72 0 51 4 67 15 67 3 0 3 -14 1 -31z m-118 -28 c0 -4 -3
-11 -7 -14 -8 -9 -34 13 -28 24 6 9 35 1 35 -10z m-20 -55 c0 -31 -12 -47 -26
-35 -10 8 -11 16 -3 30 11 22 29 25 29 5z m420 -125 c0 -5 -13 -21 -30 -34
-16 -14 -30 -30 -30 -35 0 -11 -103 -109 -146 -140 -45 -31 -59 -12 -48 65 8
53 11 58 35 59 30 0 150 56 169 79 13 16 50 21 50 6z"/>
<path d="M1844 1410 c-23 -11 -73 -51 -112 -89 -57 -57 -80 -89 -120 -173 -28
-57 -53 -114 -55 -128 -3 -14 -13 -52 -22 -84 -25 -89 -11 -231 32 -326 23
-52 33 -61 88 -79 22 -8 58 -22 79 -32 42 -20 131 -26 141 -9 3 6 14 10 24 10
9 0 37 20 61 45 24 25 48 45 52 45 4 0 7 -49 6 -109 -2 -118 6 -141 48 -141
13 0 38 -9 56 -20 19 -12 51 -20 76 -20 l42 0 0 64 c0 36 5 68 11 71 6 4 8 12
6 19 -6 14 19 186 33 230 13 43 40 179 49 246 6 49 22 97 52 152 5 10 9 21 9
26 0 9 -58 32 -82 32 -9 0 -21 7 -29 16 -8 10 -21 13 -36 9 -27 -6 -31 10 -5
24 13 7 22 7 30 -1 18 -18 42 10 42 47 0 25 -8 40 -31 59 -17 14 -38 26 -48
26 -9 0 -21 4 -26 8 -6 5 -30 15 -55 22 -25 8 -76 29 -114 47 -80 39 -139 42
-202 13z m312 -194 c7 -18 -42 -96 -60 -96 -8 0 -32 -31 -55 -69 -23 -38 -51
-77 -61 -86 -11 -10 -20 -22 -20 -27 0 -12 -76 -121 -100 -143 -11 -10 -20
-24 -20 -32 0 -7 -7 -13 -15 -13 -19 0 -19 10 2 84 19 66 84 190 139 261 19
25 34 48 34 51 0 2 10 15 23 28 46 48 122 72 133 42z m-360 -333 c-10 -10 -19
5 -10 18 6 11 8 11 12 0 2 -7 1 -15 -2 -18z m-16 -53 c0 -5 -5 -10 -11 -10 -5
0 -7 5 -4 10 3 6 8 10 11 10 2 0 4 -4 4 -10z m0 -100 c0 -5 -4 -10 -10 -10 -5
0 -10 5 -10 10 0 6 5 10 10 10 6 0 10 -4 10 -10z m340 -85 c0 -14 -4 -25 -10
-25 -5 0 -10 11 -10 25 0 14 5 25 10 25 6 0 10 -11 10 -25z m-8 -77 c-9 -9
-12 -7 -12 12 0 19 3 21 12 12 9 -9 9 -15 0 -24z m-12 -28 c0 -5 -5 -10 -11
-10 -5 0 -7 5 -4 10 3 6 8 10 11 10 2 0 4 -4 4 -10z"/>
<path d="M7844 1410 c-23 -11 -73 -51 -112 -89 -57 -57 -80 -89 -120 -173 -28
-57 -53 -114 -55 -128 -3 -14 -13 -52 -22 -84 -25 -89 -11 -231 32 -326 23
-52 33 -61 88 -79 22 -8 58 -22 79 -32 42 -20 131 -26 141 -9 3 6 14 10 24 10
9 0 37 20 61 45 24 25 48 45 52 45 4 0 7 -49 6 -109 -2 -118 6 -141 48 -141
13 0 38 -9 56 -20 19 -12 51 -20 76 -20 l42 0 0 64 c0 36 5 68 11 71 6 4 8 12
6 19 -6 14 19 186 33 230 13 43 40 179 49 246 6 49 22 97 52 152 5 10 9 21 9
26 0 9 -58 32 -82 32 -9 0 -21 7 -29 16 -8 10 -21 13 -36 9 -27 -6 -31 10 -5
24 13 7 22 7 30 -1 18 -18 42 10 42 47 0 25 -8 40 -31 59 -17 14 -38 26 -48
26 -9 0 -21 4 -26 8 -6 5 -30 15 -55 22 -25 8 -76 29 -114 47 -80 39 -139 42
-202 13z m312 -194 c7 -18 -42 -96 -60 -96 -8 0 -32 -31 -55 -69 -23 -38 -51
-77 -61 -86 -11 -10 -20 -22 -20 -27 0 -12 -76 -121 -100 -143 -11 -10 -20
-24 -20 -32 0 -7 -7 -13 -15 -13 -19 0 -19 10 2 84 19 66 84 190 139 261 19
25 34 48 34 51 0 2 10 15 23 28 46 48 122 72 133 42z m-321 -136 c3 -5 1 -10
-4 -10 -6 0 -11 5 -11 10 0 6 2 10 4 10 3 0 8 -4 11 -10z m-39 -197 c-10 -10
-19 5 -10 18 6 11 8 11 12 0 2 -7 1 -15 -2 -18z m-16 -53 c0 -5 -5 -10 -11
-10 -5 0 -7 5 -4 10 3 6 8 10 11 10 2 0 4 -4 4 -10z m0 -100 c0 -5 -4 -10 -10
-10 -5 0 -10 5 -10 10 0 6 5 10 10 10 6 0 10 -4 10 -10z m340 -85 c0 -14 -4
-25 -10 -25 -5 0 -10 11 -10 25 0 14 5 25 10 25 6 0 10 -11 10 -25z m-8 -77
c-9 -9 -12 -7 -12 12 0 19 3 21 12 12 9 -9 9 -15 0 -24z m-12 -28 c0 -5 -5
-10 -11 -10 -5 0 -7 5 -4 10 3 6 8 10 11 10 2 0 4 -4 4 -10z"/>
</g>
</svg>
